<svg id="Layer_1" data-name="Layer 1" xmlns="http://www.w3.org/2000/svg" viewBox="0 0 308.31 229.03"><defs><style>.cls-1{fill:#00a79d;}.cls-2{opacity:0.75;}.cls-3,.cls-4{font-size:199.95px;}.cls-3{fill:#8b0304;}.cls-3,.cls-4,.cls-5,.cls-6{font-family:Bauhaus93, "Bauhaus 93";}.cls-4{fill:#ed1c24;}.cls-5,.cls-6{font-size:202.13px;}.cls-5{fill:#905501;}.cls-6{fill:#f7941d;}</style></defs><title>LogoColor</title><path class="cls-1" d="M465.84,463.25c-1.7,1.7-1.71,3-4.11,3s-2.41-.45-4.82-.45-2.4-3.87-4.81-3.87-2.41-.4-4.81-.4-2.41.35-4.81.35-2.41,4.18-4.82,4.18-2.41-3.73-4.81-3.73-2.41,4-4.82,4-2.4-1.88-4.81-1.88-2.41-1.1-4.81-1.1-2.41,1.07-4.82,1.07-2.41,2-4.81,2S406.37,466,404,466s-2.4-2.81-4.81-2.81-2.41,2.28-4.81,2.28-2.41.61-4.82.61-2.41-1.9-4.81-1.9-2.41-.87-4.82-.87-2.4.75-4.81.75-2.41-2.46-4.82-2.46-2.4,0-4.81,0-2.41.13-4.82.13-2.4.25-4.81.25-2.41,2-4.81,2-2.41-.67-4.81-.67-2.41,2.59-4.81,2.59-2.41.34-4.81.34-2.41-1-4.82-1-2.4-3.47-4.81-3.47-2.41,2.38-4.82,2.38-2.4-1.86-4.81-1.86-2.4,2-4.81,2-2.41-2.18-4.81-2.18-2.41,2-4.82,2-2.41-1.81-4.81-1.81-2.41,3.3-4.81,3.3-2.41-2-4.82-2-2.41,2.21-4.82,2.21-2.4-.41-4.81-.41-2.41-3.32-4.81-3.32-2.41,1.93-4.82,1.93-2.41-.67-4.82-.67-2.4.23-4.81.23-2.41.36-4.82.36-2.41-1.48-4.81-1.48-2.41-.5-4.82-.5-2.41,2-4.82,2-2.41,2.18-4.81,2.18-2.41-2.77-4.82-2.77-2.41,2.45-4.82,2.45-2.41-3.26-4.82-3.26-2.41,3.52-4.81,3.52-2.41-4.21-4.82-4.21-2.41,1-4.81,1-2.41,2.06-4.82,2.06-2.41-1.14-4.82-1.14-2.41-1-4.82-1-2.41-1-4.82-1-2.41,1.57-4.82,1.57-2.41-1.84-4.81-1.84-2.42,2.55-4.83,2.55-2.41-1.86-4.82-1.86-4.58,4.89-6.28,3.18.87-3.86.87-6.27,3-2.41,3-4.82-2.77-2.41-2.77-4.82.94-2.41.94-4.82-2.44-2.41-2.44-4.82-.12-2.41-.12-4.82,3-2.4,3-4.81.9-2.41.9-4.81-4-2.41-4-4.82,1.85-2.41,1.85-4.81,2-2.41,2-4.82-3.23-2.41-3.23-4.82-.72-2.41-.72-4.82.4-2.41.4-4.81,3.6-2.41,3.6-4.82-.87-2.41-.87-4.82-1.49-2.41-1.49-4.82-1.21-2.41-1.21-4.82-.65-2.41-.65-4.82.36-2.41.36-4.82.58-2.41.58-4.82-.54-2.41-.54-4.81,2.14-2.42,2.14-4.83,1.59-2.41,1.59-4.81.32-2.42.32-4.83-4.31-2.41-4.31-4.82,2.74-2.41,2.74-4.82.34-2.41.34-4.82-.3-2.41-.3-4.82-2.14-2.41-2.14-4.82S163,317,163,314.57s-.61-2.41-.61-4.82,2.67-2.42,2.67-4.83.15-2.41.15-4.81-1.7-2.42-1.7-4.83-2.3-2.41-2.3-4.82,3.57-2.41,3.57-4.82-1.87-2.41-1.87-4.82-1.11-2.41-1.11-4.82,3.62-2.42,3.62-4.83-2.67-2.41-2.67-4.82-1.94-2.41-1.94-4.82,1-2.42,1-4.83,1.56-2.41,1.56-4.83-2.1-3.35-.39-5.06,2.64-1.78,5-1.78,2.41,2.88,4.82,2.88,2.4-2.79,4.81-2.79,2.41-.54,4.81-.54,2.41,3.7,4.82,3.7,2.4-1.95,4.81-1.95,2.41,2.29,4.82,2.29,2.4-.58,4.81-.58,2.41-1.7,4.81-1.7,2.41-1.57,4.82-1.57,2.4,4.4,4.81,4.4,2.41-2,4.81-2,2.41,2.32,4.82,2.32,2.4-4.9,4.81-4.9,2.41,2.3,4.82,2.3,2.4,1.27,4.81,1.27,2.41-1.29,4.82-1.29,2.4-1.08,4.81-1.08,2.41,2.77,4.81,2.77,2.41-1.34,4.82-1.34,2.41.19,4.81.19,2.41-.41,4.82-.41,2.4-.84,4.81-.84,2.41-1.6,4.82-1.6,2.4,2.13,4.81,2.13,2.4,1.11,4.81,1.11,2.4-2.39,4.81-2.39,2.4,4,4.81,4,2.41-2.82,4.81-2.82,2.41,1.84,4.82,1.84,2.4-3.64,4.81-3.64,2.4,1.1,4.81,1.1,2.41,2,4.81,2,2.41-2.73,4.82-2.73,2.41,3.88,4.81,3.88,2.41-3.21,4.82-3.21,2.4,1.91,4.81,1.91,2.41-1.46,4.82-1.46,2.4,1.46,4.81,1.46,2.41.71,4.82.71,2.4-1,4.81-1h4.82c2.41,0,2.41.72,4.81.72s2.41-.08,4.82-.08,2.41-.79,4.82-.79,2.4-1.23,4.81-1.23,2.41,1.9,4.82,1.9,2.41,1.32,4.82,1.32,2.4-.39,4.81-.39,2.41-.48,4.82-.48,2.41-1.66,4.82-1.66,2.41-.36,4.81-.36,2.41.3,4.82.3,2.41,2.55,4.82,2.55,2.4-2,4.81-2,2.41-1.11,4.82-1.11,2.41,2.89,4.82,2.89,2.41-1.62,4.82-1.62,2.41-2.49,4.82-2.49,2.41.78,4.82.78,2.41.32,4.82.32,2.41,1.79,4.82,1.79,3.22-2.64,4.93-.94,2.17,2.51,2.17,4.92-3.92,2.41-3.92,4.82,1.27,2.41,1.27,4.82-1.5,2.41-1.5,4.82.27,2.4.27,4.81,1.6,2.41,1.6,4.82,1.13,2.41,1.13,4.82-.87,2.41-.87,4.81-.38,2.41-.38,4.82-.24,2.4-.24,4.81S469,297.62,469,300s-.52,2.41-.52,4.82.25,2.41.25,4.82-.27,2.4-.27,4.81-2.6,2.41-2.6,4.82,2.75,2.41,2.75,4.82-2.81,2.41-2.81,4.82-.78,2.41-.78,4.82,3.1,2.41,3.1,4.81-3.73,2.41-3.73,4.83,1.1,2.4,1.1,4.81,1.69,2.41,1.69,4.82-1.79,2.41-1.79,4.82,2.35,2.41,2.35,4.82,0,2.41,0,4.82-2.06,2.41-2.06,4.82,2.44,2.41,2.44,4.82-3.6,2.41-3.6,4.82-.43,2.42-.43,4.83.83,2.41.83,4.82,3.77,2.41,3.77,4.82-3,2.41-3,4.82,3.19,2.41,3.19,4.82-2.09,2.41-2.09,4.82-2.45,2.41-2.45,4.82,2,2.41,2,4.82-.67,2.41-.67,4.82,1.2,2.42,1.2,4.83-.19,2.41-.19,4.82.83,2.41.83,4.82-2.4,2.42-2.4,4.83,3.37,2.41,3.37,4.82-3.36,2.41-3.36,4.83.29,2.54.62,4.93C466.07,461.42,467.55,461.54,465.84,463.25Z" transform="translate(-160.69 -244.58)"/><text x="-160.69" y="-244.58"/><g class="cls-2"><text class="cls-3" transform="matrix(-0.95, 0, 0, 1, 189.71, 178.5)">B</text></g><text class="cls-4" transform="matrix(-0.95, 0, 0, 1, 184.71, 173.5)">B</text><g class="cls-2"><text class="cls-5" transform="translate(127.63 178.5) scale(1.05 1)">P</text></g><text class="cls-6" transform="translate(122.63 173.5) scale(1.05 1)">P</text></svg>